{"title":"Kiss of the Vampire(1963)MPEG-4[DaScubaDude]","uid":13934607,"size":887981663,"categoryP":"video","categoryS":"movies","magnet":"?xt=urn:btih:f24f823db021372cdc548ee016cb2964ace6d513&amp;dn=Kiss+of+the+Vampire%281963%29MPEG-4%5BDaScubaDude%5D&amp;tr=udp%3A%2F%2Ftracker.leechers-paradise.org%3A6969&amp;tr=udp%3A%2F%2Fzer0day.ch%3A1337&amp;tr=udp%3A%2F%2Fopen.demonii.com%3A1337&amp;tr=udp%3A%2F%2Ftracker.coppersurfer.tk%3A6969&amp;tr=udp%3A%2F%2Fexodus.desync.com%3A6969","seeders":1,"leechers":0,"uploader":"dascuba","files":1,"time":1458434161,"description":"The Kiss of the Vampire (1963)\r\nUnrated | 1h 28min | Horror | 11 September 1963 (USA)\r\nWhen car trouble strands a honeymooning couple in a small Southern European village, an aristocratic family in the area reaches out to help them with sinister consequences.\r\nDirector: Don Sharp\r\nWriter: Anthony Hinds (screenplay) (as John Elder)\r\nStars: Clifford Evans, Edward de Souza, Noel Willman\r\n\r\nGeneral\r\nComplete name                            : Kiss of the VampireHAMMER_HORROR_Title1.mp4\r\nFormat                                   : MPEG-4\r\nFormat profile                           : Base Media\r\nCodec ID                                 : isom\r\nFile size                                : 847 MiB\r\nDuration                                 : 1h 28mn\r\nOverall bit rate                         : 1 341 Kbps\r\nMovie name                               : HAMMER_HORROR\r\nGenre                                    : Horror\r\nWriting application                      : Lavf54.6.100\r\n\r\nVideo\r\nID                                       : 1\r\nFormat                                   : AVC\r\nFormat/Info                              : Advanced Video Codec\r\nFormat profile                           :   \r\nFormat settings, CABAC                   : No\r\nFormat settings, ReFrames                : 6 frames\r\nCodec ID                                 : avc1\r\nCodec ID/Info                            : Advanced Video Coding\r\nDuration                                 : 1h 28mn\r\nBit rate                                 : 1 202 Kbps\r\nWidth                                    : 720 pixels\r\nHeight                                   : 404 pixels\r\nDisplay aspect ratio                     : 16:9\r\nFrame rate mode                          : Constant\r\nFrame rate                               : 29.970 fps\r\nColor space                              : YUV\r\nChroma subsampling                       : 4:2:0\r\nBit depth                                : 8 bits\r\nScan type                                : Progressive\r\nBits/(Pixel*Frame)                       : 0.138\r\nStream size                              : 759 MiB (90%)\r\n\r\nAudio\r\nID                                       : 2\r\nFormat                                   : AAC\r\nFormat/Info                              : Advanced Audio Codec\r\nFormat profile                           : LC\r\nCodec ID                                 : 40\r\nDuration                                 : 1h 28mn\r\nBit rate mode                            : Constant\r\nBit rate                                 : 132 Kbps\r\nChannel(s)                               : 2 channels\r\nChannel positions                        : Front: L R\r\nSampling rate                            : 44.1 KHz\r\nCompression mode                         : Lossy\r\nStream size                              : 83.7 MiB (10%)","torrent":{"xt":"urn:btih:f24f823db021372cdc548ee016cb2964ace6d513","amp;dn":"Kiss+of+the+Vampire%281963%29MPEG-4%5BDaScubaDude%5D","amp;tr":["udp%3A%2F%2Ftracker.leechers-paradise.org%3A6969","udp%3A%2F%2Fzer0day.ch%3A1337","udp%3A%2F%2Fopen.demonii.com%3A1337","udp%3A%2F%2Ftracker.coppersurfer.tk%3A6969","udp%3A%2F%2Fexodus.desync.com%3A6969"],"infoHash":"f24f823db021372cdc548ee016cb2964ace6d513","infoHashBuffer":{"type":"Buffer","data":[242,79,130,61,176,33,55,44,220,84,142,224,22,203,41,100,172,230,213,19]},"announce":[],"urlList":[]}}